<svg width="231" height="168" viewBox="0 0 231 168" fill="none" xmlns="http://www.w3.org/2000/svg">
<g clip-path="url(#clip0_188_1603)">
<path d="M134.557 29.6164C138.886 29.6164 142.396 26.107 142.396 21.7778C142.396 17.4486 138.886 13.9391 134.557 13.9391C130.228 13.9391 126.718 17.4486 126.718 21.7778C126.718 26.107 130.228 29.6164 134.557 29.6164Z" fill="#F2F2F2"/>
<path d="M195.367 145.951C207.018 137.076 212.584 122.164 209.1 107.938C209.013 107.585 208.922 107.232 208.825 106.88C206.516 98.4361 200.801 90.4106 192.473 87.7124C185.479 85.4469 177.846 87.1891 170.551 86.2882C156.229 84.5196 145.126 72.9323 137.313 60.8003C129.501 48.6682 123.497 35.0881 113.116 25.0652C96.0039 8.54423 68.0905 4.98725 46.8745 15.7412C25.6585 26.4951 12.1442 50.3537 12.7205 74.1317C13.2969 97.9097 27.4135 120.643 47.9142 132.705C55.4454 137.136 64.1558 140.275 72.8245 139.176C80.3463 138.223 87.1807 134.182 94.667 132.982C106.437 131.095 118.132 136.417 128.313 142.618C138.493 148.819 148.327 156.169 159.895 159.044C171.128 161.836 185.045 153.812 195.367 145.951Z" fill="#F2F2F2"/>
<path d="M178.626 16.2405C178.37 16.0702 178.112 15.9088 177.857 15.7444C170.473 11.0225 162.559 7.18643 154.279 4.31554L152.359 30.8018H140.187V0.449168C139.42 0.290638 138.648 0.140915 137.876 0V30.8018H123.411C115.448 30.8018 107.811 27.6386 102.18 22.008C96.5492 16.3775 93.3859 8.74081 93.3859 0.778005V0.777978C92.6108 0.945315 91.8416 1.1244 91.0724 1.31522V30.8018H79.2908L77.4617 5.54562C68.952 8.80907 60.8732 13.1007 53.4052 18.3249C53.276 18.413 53.1468 18.504 53.0206 18.592C52.3718 19.0471 51.7318 19.5109 51.0947 19.9807V121.026H85.8172L85.2036 112.527L81.8273 65.8633H149.819L146.443 112.527L145.829 121.026H180.167V17.2622C179.656 16.9157 179.143 16.5752 178.626 16.2405ZM91.0724 58.157H81.2696L79.4581 33.1151H91.0724V58.157ZM137.876 58.157H121.412V57.6609C121.412 57.4223 121.365 57.1862 121.273 56.9659C121.182 56.7456 121.048 56.5454 120.879 56.3769C120.71 56.2084 120.51 56.0748 120.29 55.9838C120.069 55.8928 119.833 55.8462 119.594 55.8466H112.437C112.198 55.8465 111.962 55.8933 111.742 55.9845C111.522 56.0756 111.322 56.2093 111.154 56.3778C110.985 56.5462 110.851 56.7463 110.76 56.9664C110.669 57.1866 110.622 57.4226 110.622 57.6609V58.157H93.3859V33.1151H137.876V58.157ZM140.187 58.157V33.1151H152.191L150.38 58.157H140.187Z" fill="#213B52"/>
<path d="M-7.62939e-06 127.496C2.55046 130.518 5.30907 133.358 8.25566 135.995L222.744 136.289C225.691 133.652 228.449 130.812 231 127.79L-7.62939e-06 127.496Z" fill="#244664"/>
<path d="M145.452 100.282V125.443C145.452 125.763 145.579 126.071 145.806 126.298C146.033 126.524 146.34 126.652 146.661 126.652H183.948C184.269 126.652 184.576 126.524 184.803 126.298C185.029 126.071 185.157 125.763 185.157 125.443V100.282C185.156 99.962 185.029 99.655 184.802 99.4286C184.575 99.2022 184.268 99.0748 183.948 99.0744H146.661C146.341 99.0748 146.034 99.2022 145.807 99.4286C145.58 99.655 145.452 99.962 145.452 100.282Z" fill="#3F3D56"/>
<path d="M146.326 100.595V125.132C146.327 125.304 146.395 125.468 146.516 125.589C146.637 125.71 146.801 125.778 146.973 125.779H183.637C183.809 125.778 183.973 125.71 184.094 125.589C184.215 125.468 184.283 125.304 184.284 125.132V100.595C184.284 100.424 184.216 100.259 184.095 100.138C183.973 100.017 183.809 99.9481 183.637 99.9478H146.973C146.801 99.9481 146.637 100.017 146.516 100.138C146.395 100.259 146.326 100.424 146.326 100.595Z" fill="#1E4A71"/>
<path d="M144.672 130.35C144.74 130.435 144.827 130.504 144.926 130.552C145.025 130.599 145.133 130.623 145.242 130.623H185.168C185.277 130.623 185.385 130.598 185.483 130.551C185.582 130.504 185.669 130.436 185.738 130.351C185.806 130.266 185.855 130.167 185.881 130.061C185.907 129.955 185.908 129.844 185.886 129.737L185.266 126.794C185.241 126.674 185.185 126.562 185.105 126.469C185.025 126.375 184.924 126.304 184.809 126.26C184.726 126.227 184.637 126.211 184.548 126.211H145.86C145.771 126.211 145.682 126.227 145.599 126.26C145.484 126.304 145.382 126.375 145.302 126.469C145.223 126.562 145.167 126.674 145.142 126.794L144.522 129.737C144.5 129.844 144.502 129.955 144.528 130.061C144.554 130.166 144.603 130.265 144.672 130.35Z" fill="#2F2E41"/>
<path d="M183.178 127.479H184.121C184.2 127.479 184.265 127.415 184.265 127.335V126.884C184.265 126.805 184.2 126.741 184.121 126.741H183.178C183.099 126.741 183.035 126.805 183.035 126.884V127.335C183.035 127.415 183.099 127.479 183.178 127.479Z" fill="#3F3D56"/>
<path d="M180.719 127.479H181.662C181.741 127.479 181.805 127.415 181.805 127.335V126.884C181.805 126.805 181.741 126.741 181.662 126.741H180.719C180.64 126.741 180.576 126.805 180.576 126.884V127.335C180.576 127.415 180.64 127.479 180.719 127.479Z" fill="#3F3D56"/>
<path d="M178.259 127.479H179.203C179.282 127.479 179.346 127.415 179.346 127.335V126.884C179.346 126.805 179.282 126.741 179.203 126.741H178.259C178.18 126.741 178.116 126.805 178.116 126.884V127.335C178.116 127.415 178.18 127.479 178.259 127.479Z" fill="#3F3D56"/>
<path d="M175.8 127.479H176.743C176.822 127.479 176.887 127.415 176.887 127.335V126.884C176.887 126.805 176.822 126.741 176.743 126.741H175.8C175.721 126.741 175.657 126.805 175.657 126.884V127.335C175.657 127.415 175.721 127.479 175.8 127.479Z" fill="#3F3D56"/>
<path d="M173.341 127.479H174.284C174.363 127.479 174.427 127.415 174.427 127.335V126.884C174.427 126.805 174.363 126.741 174.284 126.741H173.341C173.262 126.741 173.197 126.805 173.197 126.884V127.335C173.197 127.415 173.262 127.479 173.341 127.479Z" fill="#3F3D56"/>
<path d="M170.881 127.479H171.824C171.904 127.479 171.968 127.415 171.968 127.335V126.884C171.968 126.805 171.904 126.741 171.824 126.741H170.881C170.802 126.741 170.738 126.805 170.738 126.884V127.335C170.738 127.415 170.802 127.479 170.881 127.479Z" fill="#3F3D56"/>
<path d="M168.422 127.479H169.365C169.444 127.479 169.508 127.415 169.508 127.335V126.884C169.508 126.805 169.444 126.741 169.365 126.741H168.422C168.343 126.741 168.279 126.805 168.279 126.884V127.335C168.279 127.415 168.343 127.479 168.422 127.479Z" fill="#3F3D56"/>
<path d="M165.963 127.479H166.906C166.985 127.479 167.049 127.415 167.049 127.335V126.884C167.049 126.805 166.985 126.741 166.906 126.741H165.963C165.883 126.741 165.819 126.805 165.819 126.884V127.335C165.819 127.415 165.883 127.479 165.963 127.479Z" fill="#3F3D56"/>
<path d="M163.503 127.479H164.446C164.525 127.479 164.59 127.415 164.59 127.335V126.884C164.59 126.805 164.525 126.741 164.446 126.741H163.503C163.424 126.741 163.36 126.805 163.36 126.884V127.335C163.36 127.415 163.424 127.479 163.503 127.479Z" fill="#3F3D56"/>
<path d="M161.044 127.479H161.987C162.066 127.479 162.13 127.415 162.13 127.335V126.884C162.13 126.805 162.066 126.741 161.987 126.741H161.044C160.965 126.741 160.901 126.805 160.901 126.884V127.335C160.901 127.415 160.965 127.479 161.044 127.479Z" fill="#3F3D56"/>
<path d="M158.585 127.479H159.528C159.607 127.479 159.671 127.415 159.671 127.335V126.884C159.671 126.805 159.607 126.741 159.528 126.741H158.585C158.505 126.741 158.441 126.805 158.441 126.884V127.335C158.441 127.415 158.505 127.479 158.585 127.479Z" fill="#3F3D56"/>
<path d="M156.125 127.479H157.068C157.147 127.479 157.212 127.415 157.212 127.335V126.884C157.212 126.805 157.147 126.741 157.068 126.741H156.125C156.046 126.741 155.982 126.805 155.982 126.884V127.335C155.982 127.415 156.046 127.479 156.125 127.479Z" fill="#3F3D56"/>
<path d="M153.666 127.479H154.609C154.688 127.479 154.752 127.415 154.752 127.335V126.884C154.752 126.805 154.688 126.741 154.609 126.741H153.666C153.587 126.741 153.522 126.805 153.522 126.884V127.335C153.522 127.415 153.587 127.479 153.666 127.479Z" fill="#3F3D56"/>
<path d="M151.206 127.479H152.149C152.229 127.479 152.293 127.415 152.293 127.335V126.884C152.293 126.805 152.229 126.741 152.149 126.741H151.206C151.127 126.741 151.063 126.805 151.063 126.884V127.335C151.063 127.415 151.127 127.479 151.206 127.479Z" fill="#3F3D56"/>
<path d="M148.747 127.479H149.69C149.769 127.479 149.833 127.415 149.833 127.335V126.884C149.833 126.805 149.769 126.741 149.69 126.741H148.747C148.668 126.741 148.604 126.805 148.604 126.884V127.335C148.604 127.415 148.668 127.479 148.747 127.479Z" fill="#3F3D56"/>
<path d="M146.288 127.479H147.231C147.31 127.479 147.374 127.415 147.374 127.335V126.884C147.374 126.805 147.31 126.741 147.231 126.741H146.288C146.208 126.741 146.144 126.805 146.144 126.884V127.335C146.144 127.415 146.208 127.479 146.288 127.479Z" fill="#3F3D56"/>
<path d="M183.207 128.708H184.15C184.229 128.708 184.294 128.644 184.294 128.565V128.114C184.294 128.035 184.229 127.971 184.15 127.971H183.207C183.128 127.971 183.064 128.035 183.064 128.114V128.565C183.064 128.644 183.128 128.708 183.207 128.708Z" fill="#3F3D56"/>
<path d="M180.748 128.708H181.691C181.77 128.708 181.834 128.644 181.834 128.565V128.114C181.834 128.035 181.77 127.971 181.691 127.971H180.748C180.669 127.971 180.605 128.035 180.605 128.114V128.565C180.605 128.644 180.669 128.708 180.748 128.708Z" fill="#3F3D56"/>
<path d="M178.289 128.708H179.232C179.311 128.708 179.375 128.644 179.375 128.565V128.114C179.375 128.035 179.311 127.971 179.232 127.971H178.289C178.209 127.971 178.145 128.035 178.145 128.114V128.565C178.145 128.644 178.209 128.708 178.289 128.708Z" fill="#3F3D56"/>
<path d="M175.829 128.708H176.772C176.851 128.708 176.916 128.644 176.916 128.565V128.114C176.916 128.035 176.851 127.971 176.772 127.971H175.829C175.75 127.971 175.686 128.035 175.686 128.114V128.565C175.686 128.644 175.75 128.708 175.829 128.708Z" fill="#3F3D56"/>
<path d="M173.37 128.708H174.313C174.392 128.708 174.456 128.644 174.456 128.565V128.114C174.456 128.035 174.392 127.971 174.313 127.971H173.37C173.291 127.971 173.226 128.035 173.226 128.114V128.565C173.226 128.644 173.291 128.708 173.37 128.708Z" fill="#3F3D56"/>
<path d="M170.91 128.708H171.853C171.933 128.708 171.997 128.644 171.997 128.565V128.114C171.997 128.035 171.933 127.971 171.853 127.971H170.91C170.831 127.971 170.767 128.035 170.767 128.114V128.565C170.767 128.644 170.831 128.708 170.91 128.708Z" fill="#3F3D56"/>
<path d="M168.451 128.708H169.394C169.473 128.708 169.537 128.644 169.537 128.565V128.114C169.537 128.035 169.473 127.971 169.394 127.971H168.451C168.372 127.971 168.308 128.035 168.308 128.114V128.565C168.308 128.644 168.372 128.708 168.451 128.708Z" fill="#3F3D56"/>
<path d="M165.992 128.708H166.935C167.014 128.708 167.078 128.644 167.078 128.565V128.114C167.078 128.035 167.014 127.971 166.935 127.971H165.992C165.913 127.971 165.848 128.035 165.848 128.114V128.565C165.848 128.644 165.913 128.708 165.992 128.708Z" fill="#3F3D56"/>
<path d="M163.532 128.708H164.475C164.554 128.708 164.619 128.644 164.619 128.565V128.114C164.619 128.035 164.554 127.971 164.475 127.971H163.532C163.453 127.971 163.389 128.035 163.389 128.114V128.565C163.389 128.644 163.453 128.708 163.532 128.708Z" fill="#3F3D56"/>
<path d="M161.073 128.708H162.016C162.095 128.708 162.159 128.644 162.159 128.565V128.114C162.159 128.035 162.095 127.971 162.016 127.971H161.073C160.994 127.971 160.93 128.035 160.93 128.114V128.565C160.93 128.644 160.994 128.708 161.073 128.708Z" fill="#3F3D56"/>
<path d="M158.614 128.708H159.557C159.636 128.708 159.7 128.644 159.7 128.565V128.114C159.7 128.035 159.636 127.971 159.557 127.971H158.614C158.534 127.971 158.47 128.035 158.47 128.114V128.565C158.47 128.644 158.534 128.708 158.614 128.708Z" fill="#3F3D56"/>
<path d="M156.154 128.708H157.097C157.176 128.708 157.241 128.644 157.241 128.565V128.114C157.241 128.035 157.176 127.971 157.097 127.971H156.154C156.075 127.971 156.011 128.035 156.011 128.114V128.565C156.011 128.644 156.075 128.708 156.154 128.708Z" fill="#3F3D56"/>
<path d="M153.695 128.708H154.638C154.717 128.708 154.781 128.644 154.781 128.565V128.114C154.781 128.035 154.717 127.971 154.638 127.971H153.695C153.616 127.971 153.551 128.035 153.551 128.114V128.565C153.551 128.644 153.616 128.708 153.695 128.708Z" fill="#3F3D56"/>
<path d="M151.235 128.708H152.179C152.258 128.708 152.322 128.644 152.322 128.565V128.114C152.322 128.035 152.258 127.971 152.179 127.971H151.235C151.156 127.971 151.092 128.035 151.092 128.114V128.565C151.092 128.644 151.156 128.708 151.235 128.708Z" fill="#3F3D56"/>
<path d="M148.776 128.708H149.719C149.798 128.708 149.862 128.644 149.862 128.565V128.114C149.862 128.035 149.798 127.971 149.719 127.971H148.776C148.697 127.971 148.633 128.035 148.633 128.114V128.565C148.633 128.644 148.697 128.708 148.776 128.708Z" fill="#3F3D56"/>
<path d="M146.317 128.708H147.26C147.339 128.708 147.403 128.644 147.403 128.565V128.114C147.403 128.035 147.339 127.971 147.26 127.971H146.317C146.238 127.971 146.173 128.035 146.173 128.114V128.565C146.173 128.644 146.238 128.708 146.317 128.708Z" fill="#3F3D56"/>
<path d="M162.795 130.184H172.345C172.425 130.184 172.489 130.12 172.489 130.041V129.589C172.489 129.51 172.425 129.446 172.345 129.446H162.795C162.715 129.446 162.651 129.51 162.651 129.589V130.041C162.651 130.12 162.715 130.184 162.795 130.184Z" fill="#3F3D56"/>
<path d="M152.676 105.316H151.841C151.588 105.316 151.382 105.521 151.382 105.774C151.382 106.027 151.588 106.232 151.841 106.232H152.676C152.929 106.232 153.134 106.027 153.134 105.774C153.134 105.521 152.929 105.316 152.676 105.316Z" fill="white"/>
<path d="M162.224 105.316H161.389C161.136 105.316 160.931 105.521 160.931 105.774C160.931 106.027 161.136 106.232 161.389 106.232H162.224C162.477 106.232 162.682 106.027 162.682 105.774C162.682 105.521 162.477 105.316 162.224 105.316Z" fill="white"/>
<path d="M164.929 105.316H164.095C163.841 105.316 163.636 105.521 163.636 105.774C163.636 106.027 163.841 106.232 164.095 106.232H164.929C165.182 106.232 165.388 106.027 165.388 105.774C165.388 105.521 165.182 105.316 164.929 105.316Z" fill="white"/>
<path d="M159.627 105.24H154.438C154.185 105.24 153.98 105.445 153.98 105.698C153.98 105.951 154.185 106.156 154.438 106.156H159.627C159.88 106.156 160.085 105.951 160.085 105.698C160.085 105.445 159.88 105.24 159.627 105.24Z" fill="white"/>
<path d="M172.358 105.24H167.169C166.916 105.24 166.711 105.445 166.711 105.698C166.711 105.951 166.916 106.156 167.169 106.156H172.358C172.611 106.156 172.816 105.951 172.816 105.698C172.816 105.445 172.611 105.24 172.358 105.24Z" fill="white"/>
<path d="M155.222 107.385H154.387C154.134 107.385 153.929 107.59 153.929 107.843C153.929 108.096 154.134 108.301 154.387 108.301H155.222C155.475 108.301 155.68 108.096 155.68 107.843C155.68 107.59 155.475 107.385 155.222 107.385Z" fill="white"/>
<path d="M164.77 107.385H163.935C163.682 107.385 163.477 107.59 163.477 107.843C163.477 108.096 163.682 108.301 163.935 108.301H164.77C165.023 108.301 165.229 108.096 165.229 107.843C165.229 107.59 165.023 107.385 164.77 107.385Z" fill="white"/>
<path d="M167.476 107.385H166.641C166.388 107.385 166.182 107.59 166.182 107.843C166.182 108.096 166.388 108.301 166.641 108.301H167.476C167.729 108.301 167.934 108.096 167.934 107.843C167.934 107.59 167.729 107.385 167.476 107.385Z" fill="white"/>
<path d="M162.173 107.308H156.984C156.731 107.308 156.526 107.513 156.526 107.766C156.526 108.02 156.731 108.225 156.984 108.225H162.173C162.426 108.225 162.631 108.02 162.631 107.766C162.631 107.513 162.426 107.308 162.173 107.308Z" fill="white"/>
<path d="M174.904 107.308H169.715C169.462 107.308 169.257 107.513 169.257 107.766C169.257 108.02 169.462 108.225 169.715 108.225H174.904C175.157 108.225 175.362 108.02 175.362 107.766C175.362 107.513 175.157 107.308 174.904 107.308Z" fill="white"/>
<path d="M157.768 109.453H156.933C156.68 109.453 156.475 109.658 156.475 109.912C156.475 110.165 156.68 110.37 156.933 110.37H157.768C158.021 110.37 158.226 110.165 158.226 109.912C158.226 109.658 158.021 109.453 157.768 109.453Z" fill="white"/>
<path d="M167.316 109.453H166.482C166.228 109.453 166.023 109.658 166.023 109.912C166.023 110.165 166.228 110.37 166.482 110.37H167.316C167.57 110.37 167.775 110.165 167.775 109.912C167.775 109.658 167.57 109.453 167.316 109.453Z" fill="white"/>
<path d="M170.022 109.453H169.187C168.934 109.453 168.729 109.658 168.729 109.912C168.729 110.165 168.934 110.37 169.187 110.37H170.022C170.275 110.37 170.48 110.165 170.48 109.912C170.48 109.658 170.275 109.453 170.022 109.453Z" fill="white"/>
<path d="M164.719 109.377H159.53C159.277 109.377 159.072 109.582 159.072 109.835C159.072 110.088 159.277 110.293 159.53 110.293H164.719C164.972 110.293 165.178 110.088 165.178 109.835C165.178 109.582 164.972 109.377 164.719 109.377Z" fill="white"/>
<path d="M177.45 109.377H172.262C172.008 109.377 171.803 109.582 171.803 109.835C171.803 110.088 172.008 110.293 172.262 110.293H177.45C177.704 110.293 177.909 110.088 177.909 109.835C177.909 109.582 177.704 109.377 177.45 109.377Z" fill="white"/>
<path d="M160.314 111.522H159.479C159.226 111.522 159.021 111.727 159.021 111.98C159.021 112.233 159.226 112.439 159.479 112.439H160.314C160.567 112.439 160.773 112.233 160.773 111.98C160.773 111.727 160.567 111.522 160.314 111.522Z" fill="white"/>
<path d="M169.863 111.522H169.028C168.775 111.522 168.569 111.727 168.569 111.98C168.569 112.233 168.775 112.439 169.028 112.439H169.863C170.116 112.439 170.321 112.233 170.321 111.98C170.321 111.727 170.116 111.522 169.863 111.522Z" fill="white"/>
<path d="M172.568 111.522H171.733C171.48 111.522 171.275 111.727 171.275 111.98C171.275 112.233 171.48 112.439 171.733 112.439H172.568C172.821 112.439 173.026 112.233 173.026 111.98C173.026 111.727 172.821 111.522 172.568 111.522Z" fill="white"/>
<path d="M167.266 111.446H162.077C161.824 111.446 161.618 111.651 161.618 111.904C161.618 112.157 161.824 112.362 162.077 112.362H167.266C167.519 112.362 167.724 112.157 167.724 111.904C167.724 111.651 167.519 111.446 167.266 111.446Z" fill="white"/>
<path d="M162.224 119.748H161.389C161.136 119.748 160.931 119.953 160.931 120.206C160.931 120.46 161.136 120.665 161.389 120.665H162.224C162.477 120.665 162.682 120.46 162.682 120.206C162.682 119.953 162.477 119.748 162.224 119.748Z" fill="white"/>
<path d="M164.929 119.748H164.095C163.841 119.748 163.636 119.953 163.636 120.206C163.636 120.46 163.841 120.665 164.095 120.665H164.929C165.182 120.665 165.388 120.46 165.388 120.206C165.388 119.953 165.182 119.748 164.929 119.748Z" fill="white"/>
<path d="M172.358 119.825H167.169C166.916 119.825 166.711 120.03 166.711 120.283C166.711 120.536 166.916 120.741 167.169 120.741H172.358C172.611 120.741 172.816 120.536 172.816 120.283C172.816 120.03 172.611 119.825 172.358 119.825Z" fill="white"/>
<path d="M152.676 119.748H151.841C151.588 119.748 151.382 119.953 151.382 120.206C151.382 120.46 151.588 120.665 151.841 120.665H152.676C152.929 120.665 153.134 120.46 153.134 120.206C153.134 119.953 152.929 119.748 152.676 119.748Z" fill="white"/>
<path d="M159.627 119.825H154.438C154.185 119.825 153.98 120.03 153.98 120.283C153.98 120.536 154.185 120.741 154.438 120.741H159.627C159.88 120.741 160.085 120.536 160.085 120.283C160.085 120.03 159.88 119.825 159.627 119.825Z" fill="white"/>
<path d="M155.222 117.679H154.387C154.134 117.679 153.929 117.885 153.929 118.138C153.929 118.391 154.134 118.596 154.387 118.596H155.222C155.475 118.596 155.68 118.391 155.68 118.138C155.68 117.885 155.475 117.679 155.222 117.679Z" fill="white"/>
<path d="M164.77 117.679H163.935C163.682 117.679 163.477 117.885 163.477 118.138C163.477 118.391 163.682 118.596 163.935 118.596H164.77C165.023 118.596 165.229 118.391 165.229 118.138C165.229 117.885 165.023 117.679 164.77 117.679Z" fill="white"/>
<path d="M167.476 117.679H166.641C166.388 117.679 166.182 117.885 166.182 118.138C166.182 118.391 166.388 118.596 166.641 118.596H167.476C167.729 118.596 167.934 118.391 167.934 118.138C167.934 117.885 167.729 117.679 167.476 117.679Z" fill="white"/>
<path d="M162.173 117.756H156.984C156.731 117.756 156.526 117.961 156.526 118.214C156.526 118.467 156.731 118.672 156.984 118.672H162.173C162.426 118.672 162.631 118.467 162.631 118.214C162.631 117.961 162.426 117.756 162.173 117.756Z" fill="white"/>
<path d="M157.768 115.611H156.933C156.68 115.611 156.475 115.816 156.475 116.069C156.475 116.322 156.68 116.527 156.933 116.527H157.768C158.021 116.527 158.226 116.322 158.226 116.069C158.226 115.816 158.021 115.611 157.768 115.611Z" fill="white"/>
<path d="M167.316 115.611H166.482C166.228 115.611 166.023 115.816 166.023 116.069C166.023 116.322 166.228 116.527 166.482 116.527H167.316C167.57 116.527 167.775 116.322 167.775 116.069C167.775 115.816 167.57 115.611 167.316 115.611Z" fill="white"/>
<path d="M170.022 115.611H169.187C168.934 115.611 168.729 115.816 168.729 116.069C168.729 116.322 168.934 116.527 169.187 116.527H170.022C170.275 116.527 170.48 116.322 170.48 116.069C170.48 115.816 170.275 115.611 170.022 115.611Z" fill="white"/>
<path d="M164.719 115.687H159.53C159.277 115.687 159.072 115.892 159.072 116.145C159.072 116.398 159.277 116.604 159.53 116.604H164.719C164.972 116.604 165.178 116.398 165.178 116.145C165.178 115.892 164.972 115.687 164.719 115.687Z" fill="white"/>
<path d="M160.314 113.542H159.479C159.226 113.542 159.021 113.747 159.021 114C159.021 114.253 159.226 114.459 159.479 114.459H160.314C160.567 114.459 160.773 114.253 160.773 114C160.773 113.747 160.567 113.542 160.314 113.542Z" fill="white"/>
<path d="M169.863 113.542H169.028C168.775 113.542 168.569 113.747 168.569 114C168.569 114.253 168.775 114.459 169.028 114.459H169.863C170.116 114.459 170.321 114.253 170.321 114C170.321 113.747 170.116 113.542 169.863 113.542Z" fill="white"/>
<path d="M172.568 113.542H171.733C171.48 113.542 171.275 113.747 171.275 114C171.275 114.253 171.48 114.459 171.733 114.459H172.568C172.821 114.459 173.026 114.253 173.026 114C173.026 113.747 172.821 113.542 172.568 113.542Z" fill="white"/>
<path d="M167.266 113.618H162.077C161.824 113.618 161.618 113.824 161.618 114.077C161.618 114.33 161.824 114.535 162.077 114.535H167.266C167.519 114.535 167.724 114.33 167.724 114.077C167.724 113.824 167.519 113.618 167.266 113.618Z" fill="white"/>
<path d="M148.237 143.993L144.318 137.798L156.62 127.992L161.697 122.366C162.357 121.636 163.197 121.091 164.133 120.786C165.07 120.482 166.069 120.428 167.033 120.631C167.996 120.834 168.889 121.286 169.623 121.942C170.357 122.599 170.906 123.436 171.215 124.371C171.673 125.756 171.574 127.265 170.94 128.579C170.307 129.893 169.187 130.91 167.818 131.414L159.789 134.372L148.237 143.993Z" fill="#FFB6B6"/>
<path d="M56.2777 99.0756V129.185H77.3719V99.0756C77.3722 98.859 77.3031 98.6481 77.1747 98.4737C77.0463 98.2993 76.8654 98.1707 76.6585 98.1068C76.5609 98.0746 76.4588 98.0587 76.3561 98.0598H57.2964C57.1628 98.0595 57.0304 98.0856 56.9069 98.1365C56.7834 98.1875 56.6711 98.2622 56.5765 98.3566C56.4819 98.4509 56.4068 98.5629 56.3555 98.6863C56.3042 98.8097 56.2778 98.942 56.2777 99.0756ZM64.5098 109.421C64.5153 108.828 64.755 108.26 65.1767 107.842C65.5984 107.425 66.168 107.19 66.7616 107.19C67.3553 107.19 67.9249 107.425 68.3466 107.842C68.7683 108.26 69.008 108.828 69.0135 109.421V112.915C69.0104 113.51 68.7718 114.08 68.3499 114.499C67.9279 114.919 67.3569 115.155 66.7616 115.155C66.1664 115.155 65.5954 114.919 65.1734 114.499C64.7515 114.08 64.5129 113.51 64.5098 112.915V109.421Z" fill="#182F43"/>
<path d="M56.2131 128.222V131.125C56.2136 131.275 56.2733 131.42 56.3794 131.526C56.4855 131.633 56.6293 131.693 56.7797 131.695H76.8699C77.0204 131.694 77.1645 131.634 77.2707 131.527C77.3769 131.42 77.4365 131.276 77.4365 131.125V128.222H56.2131Z" fill="#3F3D56"/>
<path d="M23.0935 53.7125V108.687C23.0941 109.388 23.3727 110.059 23.8681 110.555C24.3635 111.05 25.0352 111.329 25.7358 111.329H107.206C107.907 111.329 108.579 111.05 109.074 110.555C109.569 110.059 109.848 109.388 109.848 108.687V53.7125C109.847 53.0126 109.568 52.3418 109.073 51.8471C108.577 51.3524 107.906 51.0742 107.206 51.0733H25.7358C25.0358 51.0742 24.3647 51.3525 23.8695 51.8471C23.3742 52.3418 23.0952 53.0126 23.0935 53.7125Z" fill="#1E374E"/>
<path d="M25.0048 54.3965V108.009C25.0054 108.383 25.1544 108.742 25.4191 109.007C25.6838 109.271 26.0426 109.42 26.4169 109.421H106.528C106.902 109.42 107.261 109.271 107.526 109.007C107.79 108.742 107.939 108.383 107.94 108.009V54.3965C107.94 54.0218 107.791 53.6623 107.527 53.397C107.262 53.1318 106.903 52.9823 106.528 52.9815H26.4169C26.0422 52.9823 25.683 53.1318 25.4183 53.397C25.1535 53.6623 25.0048 54.0218 25.0048 54.3965Z" fill="white"/>
<path d="M39.872 131.498C39.9536 131.6 40.0572 131.683 40.1752 131.739C40.2931 131.795 40.4224 131.824 40.5531 131.824H88.2141C88.3444 131.824 88.4731 131.794 88.5907 131.738C88.7083 131.682 88.812 131.6 88.8941 131.499C88.9762 131.398 89.0347 131.28 89.0654 131.153C89.096 131.026 89.0981 130.894 89.0713 130.767L88.3315 127.253C88.3008 127.11 88.2348 126.976 88.1394 126.865C88.044 126.754 87.9224 126.668 87.7854 126.616C87.6863 126.577 87.5807 126.557 87.4742 126.557H41.2901C41.1836 126.557 41.078 126.577 40.9789 126.616C40.8419 126.668 40.7202 126.754 40.6248 126.865C40.5295 126.976 40.4634 127.11 40.4328 127.253L39.6929 130.767C39.6666 130.894 39.669 131.026 39.7 131.153C39.731 131.279 39.7897 131.397 39.872 131.498Z" fill="#182F43"/>
<path d="M103.928 60.3669H28.9685C28.8906 60.3652 28.8165 60.333 28.762 60.2773C28.7075 60.2216 28.677 60.1468 28.677 60.0688C28.677 59.9909 28.7075 59.9161 28.762 59.8604C28.8165 59.8046 28.8906 59.7725 28.9685 59.7708H103.928C104.006 59.7725 104.08 59.8046 104.135 59.8604C104.189 59.9161 104.22 59.9909 104.22 60.0688C104.22 60.1468 104.189 60.2216 104.135 60.2773C104.08 60.333 104.006 60.3652 103.928 60.3669Z" fill="#1E374E"/>
<path d="M34.0711 58.2488C35.036 58.2488 35.8181 57.4493 35.8181 56.463C35.8181 55.4767 35.036 54.6772 34.0711 54.6772C33.1063 54.6772 32.3242 55.4767 32.3242 56.463C32.3242 57.4493 33.1063 58.2488 34.0711 58.2488Z" fill="#1E374E"/>
<path d="M40.1061 58.2488C41.0709 58.2488 41.8531 57.4493 41.8531 56.463C41.8531 55.4767 41.0709 54.6772 40.1061 54.6772C39.1413 54.6772 38.3591 55.4767 38.3591 56.463C38.3591 57.4493 39.1413 58.2488 40.1061 58.2488Z" fill="#1E374E"/>
<path d="M46.1411 58.2488C47.1059 58.2488 47.8881 57.4493 47.8881 56.463C47.8881 55.4767 47.1059 54.6772 46.1411 54.6772C45.1763 54.6772 44.3941 55.4767 44.3941 56.463C44.3941 57.4493 45.1763 58.2488 46.1411 58.2488Z" fill="#1E374E"/>
<path d="M100.294 55.1188H96.0077C95.923 55.1207 95.8424 55.1558 95.7831 55.2164C95.7239 55.277 95.6908 55.3584 95.6908 55.4432C95.6908 55.5279 95.7239 55.6093 95.7831 55.6699C95.8424 55.7306 95.923 55.7656 96.0077 55.7676H100.294C100.379 55.7664 100.461 55.7317 100.521 55.671C100.58 55.6103 100.614 55.5284 100.614 55.4432C100.614 55.3579 100.58 55.2761 100.521 55.2154C100.461 55.1547 100.379 55.12 100.294 55.1188Z" fill="#1E374E"/>
<path d="M100.294 56.3371H96.0077C95.9229 56.339 95.8422 56.374 95.7829 56.4346C95.7236 56.4952 95.6904 56.5767 95.6904 56.6615C95.6904 56.7463 95.7236 56.8278 95.7829 56.8884C95.8422 56.949 95.9229 56.984 96.0077 56.9859H100.294C100.379 56.9849 100.461 56.9502 100.521 56.8895C100.581 56.8288 100.615 56.7469 100.615 56.6615C100.615 56.5761 100.581 56.4942 100.521 56.4335C100.461 56.3728 100.379 56.3381 100.294 56.3371Z" fill="#1E374E"/>
<path d="M100.294 57.5554H96.0077C95.923 57.5574 95.8424 57.5924 95.7831 57.6531C95.7239 57.7137 95.6908 57.7951 95.6908 57.8798C95.6908 57.9646 95.7239 58.046 95.7831 58.1066C95.8424 58.1672 95.923 58.2022 96.0077 58.2042H100.294C100.379 58.203 100.461 58.1683 100.521 58.1076C100.58 58.0469 100.614 57.9651 100.614 57.8798C100.614 57.7946 100.58 57.7127 100.521 57.652C100.461 57.5913 100.379 57.5566 100.294 57.5554Z" fill="#1E374E"/>
<path d="M203.631 129.496C203.76 129.872 204.005 130.198 204.331 130.427C204.658 130.655 205.048 130.774 205.446 130.767L213.224 130.567C213.625 130.559 214.012 130.422 214.329 130.176C214.645 129.929 214.874 129.587 214.979 129.2L216.08 117.431C216.471 117.608 216.896 117.696 217.324 117.687C217.697 117.678 218.063 117.595 218.404 117.444C218.744 117.293 219.052 117.076 219.308 116.806C219.565 116.536 219.766 116.219 219.9 115.871C220.034 115.523 220.098 115.153 220.089 114.78C220.079 114.408 219.997 114.041 219.846 113.701C219.694 113.36 219.478 113.053 219.208 112.796C218.938 112.54 218.62 112.339 218.272 112.205C217.925 112.071 217.554 112.007 217.182 112.016C217.011 112.016 216.84 112.033 216.672 112.069C216.49 111.872 216.269 111.715 216.022 111.609C215.776 111.503 215.51 111.449 215.241 111.452L203.277 111.761C203.178 111.764 203.079 111.777 202.982 111.797C202.72 111.846 202.471 111.951 202.252 112.104C202.034 112.257 201.851 112.455 201.715 112.685C201.58 112.915 201.495 113.171 201.467 113.437C201.438 113.702 201.467 113.97 201.552 114.224L203.631 129.496ZM216.306 116.632L217.089 113.828C217.178 113.504 217.18 113.162 217.095 112.837C217.133 112.837 217.166 112.819 217.204 112.819C217.741 112.808 218.261 113.01 218.649 113.382C219.037 113.753 219.262 114.263 219.275 114.8C219.287 115.337 219.086 115.857 218.716 116.246C218.346 116.635 217.836 116.861 217.299 116.875C216.952 116.886 216.609 116.802 216.306 116.632Z" fill="#153450"/>
<path d="M202.982 111.797C203.237 113.255 206.103 114.279 209.549 114.101C212.717 113.955 215.308 112.843 215.783 111.524C215.607 111.472 215.424 111.448 215.241 111.452L203.277 111.761C203.178 111.764 203.079 111.777 202.982 111.797Z" fill="#0C2338"/>
<path d="M210.18 123.029C210.196 123.025 210.211 123.018 210.224 123.009L211.913 121.904C211.934 121.891 211.951 121.872 211.962 121.851C211.974 121.83 211.98 121.806 211.98 121.781C211.98 121.757 211.974 121.733 211.962 121.711C211.951 121.69 211.934 121.672 211.914 121.658L210.158 120.509C210.142 120.498 210.124 120.491 210.105 120.487C210.086 120.483 210.066 120.483 210.047 120.487C210.028 120.491 210.01 120.499 209.995 120.51C209.979 120.52 209.965 120.534 209.954 120.551C209.944 120.567 209.936 120.585 209.933 120.604C209.929 120.623 209.929 120.642 209.933 120.661C209.937 120.68 209.945 120.698 209.956 120.714C209.967 120.73 209.981 120.743 209.997 120.754L211.565 121.781L210.064 122.764C210.035 122.783 210.013 122.812 210.003 122.845C209.993 122.878 209.996 122.914 210.01 122.946C210.024 122.977 210.048 123.003 210.08 123.019C210.111 123.034 210.146 123.037 210.18 123.029H210.18Z" fill="#195284"/>
<path d="M207.512 123.152C207.541 123.145 207.566 123.129 207.586 123.108C207.605 123.086 207.618 123.059 207.622 123.03C207.626 123.001 207.621 122.971 207.608 122.945C207.595 122.919 207.575 122.897 207.549 122.882L205.992 121.99L207.497 120.872C207.513 120.861 207.526 120.846 207.536 120.83C207.546 120.813 207.552 120.795 207.555 120.776C207.558 120.757 207.557 120.737 207.552 120.719C207.547 120.7 207.539 120.682 207.528 120.667C207.516 120.651 207.502 120.638 207.485 120.628C207.469 120.619 207.45 120.612 207.431 120.609C207.412 120.606 207.393 120.607 207.374 120.612C207.355 120.617 207.338 120.625 207.322 120.637L205.638 121.888C205.618 121.903 205.602 121.922 205.592 121.944C205.582 121.966 205.577 121.99 205.578 122.014C205.58 122.039 205.587 122.062 205.6 122.083C205.613 122.104 205.631 122.121 205.652 122.133L207.403 123.137C207.436 123.156 207.475 123.161 207.512 123.152Z" fill="#195284"/>
<path d="M210.012 123.998C210.026 123.994 210.04 123.988 210.052 123.981C210.069 123.971 210.083 123.958 210.095 123.942C210.106 123.926 210.114 123.909 210.119 123.89C210.123 123.871 210.124 123.852 210.121 123.833C210.118 123.814 210.112 123.796 210.102 123.779L207.707 119.843C207.687 119.81 207.654 119.786 207.616 119.777C207.579 119.767 207.539 119.774 207.505 119.794C207.472 119.814 207.448 119.847 207.439 119.885C207.43 119.922 207.436 119.962 207.456 119.996L209.851 123.932C209.867 123.959 209.892 123.979 209.921 123.991C209.95 124.003 209.982 124.005 210.012 123.998Z" fill="#195284"/>
<path d="M75.4047 76.5721H62.4309C61.9016 76.5721 61.4726 77.0011 61.4726 77.5304V78.7978C61.4726 79.3271 61.9016 79.7561 62.4309 79.7561H75.4047C75.934 79.7561 76.363 79.3271 76.363 78.7978V77.5304C76.363 77.0011 75.934 76.5721 75.4047 76.5721Z" fill="#0D2438"/>
<path d="M82.9671 82.9401H54.8685C54.3392 82.9401 53.9102 83.3691 53.9102 83.8983V85.1658C53.9102 85.695 54.3392 86.1241 54.8685 86.1241H82.9671C83.4963 86.1241 83.9254 85.695 83.9254 85.1658V83.8983C83.9254 83.3691 83.4963 82.9401 82.9671 82.9401Z" fill="#E6E6E6"/>
<path d="M82.9671 89.3081H54.8685C54.3392 89.3081 53.9102 89.7371 53.9102 90.2664V91.5338C53.9102 92.0631 54.3392 92.4921 54.8685 92.4921H82.9671C83.4963 92.4921 83.9254 92.0631 83.9254 91.5338V90.2664C83.9254 89.7371 83.4963 89.3081 82.9671 89.3081Z" fill="#E6E6E6"/>
<path d="M85.349 110.632L85.4126 110.833L85.416 110.84L87.3317 116.664L89.5354 123.375L93.6817 135.987L93.7218 137.947V137.953L94.03 153.714L93.1759 155.85L94.1371 159.353C94.1371 159.353 93.695 154.058 91.3239 157.099C89.9809 158.827 88.4101 160.595 87.1207 162.253C88.9996 163.013 90.9086 163.701 92.8477 164.316C93.2664 164.45 93.6884 164.577 94.1104 164.705C94.2008 164.731 94.2912 164.758 94.3816 164.785C100.81 166.686 107.455 167.754 114.155 167.963C114.503 167.973 114.845 167.98 115.176 167.987C115.294 167.99 115.408 167.993 115.521 167.993C115.897 167.997 116.268 168 116.643 168C117.4 168 118.154 167.989 118.904 167.967C124.457 167.81 129.977 167.063 135.372 165.739C135.335 163.512 135.234 160.91 135.09 158.131C135.023 156.767 133.52 155.291 133.429 153.864C133.366 152.792 134.715 151.784 134.645 150.696C134.19 143.994 133.62 146.567 133.198 141.821C133.155 141.356 133.114 140.91 133.078 140.485C132.806 137.438 132.619 135.532 132.619 135.532L134.421 124.175L137.251 106.345L137.033 105.987L136.788 105.867L121.861 98.4787L121.051 96.4023C120.815 95.8041 120.405 95.2902 119.874 94.9267C119.344 94.5633 118.717 94.3669 118.073 94.3627L108.24 94.3225C107.73 94.3202 107.227 94.4397 106.772 94.6709C106.317 94.9021 105.924 95.2385 105.625 95.6521L102.962 99.3393L85.349 110.632Z" fill="#213B52"/>
<path d="M95.949 133.181L93.7218 137.947L92.2014 141.202L89.5857 154.896L88.2761 156.286L87.1542 151.366L75.4114 153.973C75.0262 151.833 75.3083 154.045 75.0705 151.698C75.1375 151.631 75.2078 151.564 75.2781 151.497C75.4657 151.322 75.6231 151.158 75.6197 151.001C75.4858 142.903 75.8877 129.122 79.2435 120.773C79.7691 119.41 80.4621 118.117 81.3066 116.925C81.3736 116.835 81.4372 116.744 81.5008 116.654C83.0481 114.487 84.0261 112.354 85.4126 110.836V110.833C85.4213 110.826 85.4291 110.818 85.4361 110.81C85.4411 110.807 85.4456 110.804 85.4495 110.8L94.9744 105.749L95.383 117.23L95.6744 125.482L95.949 133.181Z" fill="#1E4A71"/>
<path d="M130.294 134.534L133.076 140.487L134.047 142.56L136.662 156.252L137.967 157.639L139.092 152.72L139.62 152.612L149.15 150.638L151.927 159.459C152.553 158.416 152.8 157.189 152.625 155.985C152.451 154.781 151.866 153.674 150.97 152.852C150.78 152.68 150.622 152.513 150.627 152.355C150.785 142.831 150.202 125.439 144.941 118.281C143.27 116.009 142.267 113.747 140.808 112.166C140.804 112.162 140.804 112.157 140.799 112.157L137.249 106.345L137.033 105.988L136.789 105.866L130.294 134.534Z" fill="#1E4A71"/>
<path d="M113.441 91.5243C120.666 91.5243 126.523 85.6677 126.523 78.4431C126.523 71.2186 120.666 65.362 113.441 65.362C106.216 65.362 100.359 71.2186 100.359 78.4431C100.359 85.6677 106.216 91.5243 113.441 91.5243Z" fill="#FFB6B6"/>
<path d="M131.122 69.306C131.021 69.1977 130.899 69.1109 130.763 69.0509C130.627 68.9909 130.481 68.9588 130.333 68.9567L130.529 68.4106C130.594 68.2386 130.611 68.0527 130.58 67.8718C130.548 67.6909 130.469 67.5216 130.351 67.3812C130.233 67.2408 130.079 67.1343 129.906 67.0728C129.733 67.0112 129.547 66.9967 129.367 67.0308L128.65 67.1688L128.718 66.6903C128.744 66.5121 128.723 66.3302 128.657 66.1625C128.591 65.9948 128.483 65.8471 128.343 65.734C128.203 65.6208 128.036 65.5461 127.858 65.5172C127.68 65.4882 127.498 65.506 127.329 65.5688C127.176 65.6293 127.011 65.6546 126.846 65.6429C126.681 65.6312 126.522 65.5828 126.378 65.5013C126.234 65.4223 126.109 65.3128 126.012 65.1804C125.914 65.0481 125.847 64.8961 125.814 64.7351L125.565 63.5314L125.538 63.4668C124.323 61.4412 121.986 59.9674 119.126 59.4272C116.581 58.9428 113.971 59.1895 111.455 59.4214C110.457 59.5153 109.329 59.621 108.39 60.1964C107.591 60.6896 106.916 61.676 107.054 62.6712C104.573 61.9109 101.913 63.4287 100.595 65.3428C99.0334 67.6209 98.778 70.4744 98.7369 72.7056C98.6253 77.9841 99.7145 82.3025 101.966 85.5436C102.131 85.7785 102.172 86.2687 102.498 86.4331L102.43 86.3245C102.794 86.5065 103.164 86.8001 103.026 87.1142C102.63 88.0184 105.263 90.0177 107.119 90.6782C110.504 91.8848 115.005 91.7821 118.169 91.3476L118.281 90.599C119.423 90.4434 120.227 90.1468 120.453 89.683C120.853 89.3424 121.193 89.0371 121.49 88.7553L121.493 88.7524C121.499 88.7465 121.51 88.7377 121.516 88.7318C122.946 87.3608 123.278 86.5799 123.428 85.391C123.571 84.2255 123.316 83.0424 123.055 81.9767C128.556 82.8281 120.888 76.1169 126.014 74.8194C126.073 74.8012 126.133 74.7865 126.193 74.7753C126.343 74.7401 126.493 74.7049 126.636 74.6638C127.33 74.4755 127.994 74.192 128.609 73.8212C130.042 72.9493 130.515 71.7926 131.255 70.4891C131.361 70.3035 131.406 70.0887 131.382 69.8759C131.359 69.6632 131.267 69.4635 131.122 69.306Z" fill="#2F2E41"/>
<path d="M159.709 135.466C159.706 135.98 159.7 136.699 159.677 137.588C159.674 137.712 159.671 137.838 159.668 137.967C159.63 139.602 159.592 140.973 159.53 142.497C159.527 142.603 159.524 142.705 159.518 142.811C159.436 144.937 159.307 147.411 159.084 151.331C158.67 158.57 157.947 152.326 157.222 154.865C157.187 154.991 157.149 155.141 157.114 155.317C157.004 155.956 156.819 156.58 156.562 157.176C156.177 157.405 155.781 157.625 155.39 157.845C154.278 158.464 153.147 159.06 152.008 159.627C151.368 159.944 150.725 160.255 150.079 160.555C149.977 160.602 149.877 160.649 149.777 160.693C146.469 162.222 143.061 163.523 139.575 164.585C138.894 164.791 138.216 164.991 137.529 165.176C136.812 165.375 136.096 165.563 135.371 165.739C129.976 167.064 124.456 167.81 118.903 167.967C118.155 167.991 117.4 168 116.643 168C116.267 168 115.897 167.997 115.521 167.994C115.407 167.994 115.292 167.991 115.178 167.988C114.846 167.979 114.502 167.973 114.156 167.964C107.456 167.756 100.811 166.687 94.383 164.785L94.1099 164.706C93.6872 164.577 93.2674 164.45 92.8475 164.315C90.9098 163.702 89.0005 163.015 87.1196 162.254C85.684 161.676 84.265 161.056 82.8626 160.393C82.8498 160.39 82.8378 160.384 82.8274 160.376C82.5338 160.241 82.2373 160.1 81.9437 159.956C81.9055 159.935 81.8644 159.915 81.8233 159.894C80.7282 159.36 79.6449 158.8 78.5733 158.215C77.672 156.145 76.4037 155.749 75.6169 153.929C75.3879 153.388 75.2224 152.822 75.1237 152.244C75.1237 152.238 75.1207 152.232 75.1207 152.223C75.2029 153.315 74.7714 150.285 75.1178 152.211C75.1149 152.176 75.1119 152.138 75.109 152.094C75.1002 151.988 75.0885 151.859 75.0709 151.698C74.0639 141.866 74.1284 130.622 73.691 121.357C73.6616 120.758 73.6313 120.184 73.6 119.636C73.5912 119.454 73.5794 119.275 73.5677 119.099C73.5882 119.046 73.6117 118.99 73.6381 118.938C73.6438 118.922 73.6506 118.908 73.6587 118.894C73.6673 118.875 73.6771 118.858 73.688 118.841C73.6939 118.832 73.7027 118.82 73.7086 118.811C73.7129 118.801 73.7178 118.792 73.7233 118.782C73.7497 118.741 73.7791 118.697 73.8113 118.656C73.826 118.638 73.8378 118.623 73.8525 118.609C73.8626 118.594 73.8744 118.58 73.8877 118.568C73.8967 118.554 73.9076 118.541 73.92 118.53C73.9317 118.518 73.9435 118.503 73.9581 118.488C73.9644 118.479 73.9724 118.471 73.9816 118.465C74.0049 118.438 74.0304 118.414 74.058 118.392C74.1627 118.295 74.2746 118.207 74.3927 118.127C74.4337 118.101 74.4778 118.075 74.5189 118.045C74.8148 117.868 75.1263 117.719 75.4496 117.599C75.5611 117.558 75.6727 117.52 75.7931 117.479C75.8371 117.467 75.8782 117.452 75.9222 117.437C75.9868 117.417 76.0514 117.396 76.1189 117.382C76.4536 117.282 76.8147 117.197 77.2052 117.117C77.2522 117.109 77.3021 117.1 77.352 117.088C77.4225 117.073 77.4959 117.062 77.5693 117.05C77.6691 117.032 77.7718 117.015 77.8746 116.997C78.7465 116.859 79.7359 116.756 80.8281 116.689C80.9308 116.683 81.0336 116.677 81.1363 116.671C81.2567 116.665 81.3771 116.66 81.5004 116.654C81.6031 116.648 81.7088 116.645 81.8145 116.642C81.9173 116.636 82.023 116.633 82.1316 116.63C82.4281 116.621 82.7335 116.613 83.0447 116.607C83.9313 116.589 84.8649 116.595 85.8455 116.615C86.3005 116.627 86.7644 116.639 87.24 116.659C87.2723 116.659 87.3017 116.662 87.331 116.662C87.745 116.677 88.1619 116.695 88.5905 116.718C88.89 116.733 89.1924 116.748 89.4947 116.765C89.7795 116.783 90.0672 116.8 90.3579 116.821C90.584 116.833 90.81 116.85 91.039 116.865C91.2328 116.88 91.4265 116.894 91.6203 116.906L91.8845 116.924C92.0284 116.935 92.1723 116.944 92.3191 116.959C92.642 116.985 92.965 117.012 93.2938 117.038C93.6196 117.068 93.9514 117.097 94.2832 117.126C94.6149 117.156 94.9496 117.188 95.2843 117.22C95.3195 117.223 95.3518 117.226 95.3841 117.229C95.6894 117.261 95.9948 117.291 96.303 117.323C96.3735 117.329 96.4469 117.335 96.5173 117.344C96.8113 117.373 97.1109 117.408 97.4075 117.439C97.4985 117.449 97.5891 117.458 97.6804 117.468C97.9127 117.494 98.1418 117.516 98.3757 117.543C98.684 117.578 98.9982 117.611 99.3035 117.652C99.5413 117.678 99.7791 117.705 100.017 117.734C100.39 117.778 100.768 117.825 101.147 117.875C101.291 117.893 101.435 117.91 101.579 117.931C102.659 118.066 103.751 118.215 104.861 118.371C106.543 118.609 108.252 118.867 109.972 119.146C111.696 119.425 113.429 119.72 115.172 120.03C115.612 120.109 116.053 120.188 116.496 120.27C116.696 120.309 116.895 120.347 117.095 120.385C117.435 120.447 117.776 120.511 118.116 120.576C118.457 120.64 118.798 120.705 119.138 120.772C119.543 120.852 119.951 120.931 120.357 121.01C123.025 121.539 125.679 122.102 128.269 122.692C128.694 122.789 129.12 122.889 129.543 122.986C130.388 123.183 131.226 123.382 132.056 123.585C132.285 123.638 132.511 123.694 132.737 123.749C133.301 123.89 133.865 124.031 134.419 124.175L134.516 124.201C134.924 124.301 135.324 124.404 135.723 124.51C136.665 124.756 137.592 125.006 138.503 125.258C139.108 125.426 139.706 125.595 140.297 125.766C141.181 126.022 142.047 126.28 142.889 126.541C143.098 126.606 143.306 126.67 143.512 126.732C144.128 126.923 144.736 127.117 145.326 127.31C145.796 127.463 146.254 127.619 146.706 127.774C147.158 127.93 147.601 128.085 148.036 128.241C148.315 128.341 148.591 128.446 148.867 128.546C149.263 128.693 149.654 128.84 150.035 128.987C150.153 129.031 150.267 129.078 150.382 129.122C150.455 129.154 150.526 129.18 150.596 129.21C150.734 129.266 150.875 129.318 151.01 129.374C151.148 129.427 151.283 129.483 151.418 129.542C151.55 129.594 151.685 129.65 151.814 129.706C151.947 129.759 152.076 129.815 152.205 129.873C152.314 129.917 152.419 129.964 152.522 130.011C152.73 130.102 152.939 130.193 153.141 130.287C153.241 130.334 153.341 130.378 153.441 130.425L153.67 130.531C153.702 130.548 153.734 130.563 153.767 130.578C153.84 130.613 153.916 130.651 153.99 130.686C154.16 130.766 154.328 130.851 154.492 130.93C154.712 131.042 154.926 131.153 155.132 131.262C155.34 131.373 155.543 131.485 155.737 131.594C155.769 131.611 155.798 131.629 155.831 131.646C155.875 131.67 155.919 131.696 155.963 131.72C156.113 131.805 156.256 131.893 156.4 131.978C156.682 132.151 156.949 132.322 157.199 132.492C157.255 132.53 157.307 132.568 157.363 132.603C157.548 132.736 157.724 132.865 157.889 132.997C157.889 133 157.889 133 157.892 133C157.947 133.041 158 133.085 158.053 133.126C158.097 133.167 158.144 133.202 158.188 133.243C158.341 133.376 158.482 133.502 158.611 133.631C158.654 133.671 158.695 133.713 158.734 133.757C158.751 133.771 158.767 133.787 158.781 133.804C158.84 133.863 158.893 133.922 158.943 133.98C158.95 133.988 158.957 133.997 158.963 134.007C159.034 134.089 159.098 134.171 159.16 134.253C159.189 134.294 159.222 134.336 159.248 134.377C159.283 134.427 159.318 134.479 159.348 134.529C159.374 134.57 159.398 134.614 159.421 134.656C159.484 134.761 159.537 134.872 159.58 134.987C159.613 135.065 159.639 135.146 159.659 135.228C159.681 135.306 159.698 135.385 159.709 135.466Z" fill="#182F43"/>
<path opacity="0.2" d="M159.709 135.466C159.706 135.98 159.7 136.699 159.677 137.588C159.674 137.712 159.668 137.838 159.665 137.967C159.636 139.215 159.592 140.756 159.53 142.497C159.527 142.603 159.524 142.705 159.518 142.811C159.436 144.937 159.307 147.411 159.084 151.331C158.67 158.57 157.947 152.326 157.222 154.865C155.208 153.626 153.001 152.329 150.64 150.996C150.214 150.755 149.785 150.514 149.351 150.271C144.63 147.637 139.358 144.878 133.853 142.145C133.636 142.036 133.415 141.927 133.198 141.822C120.589 135.589 106.825 129.527 95.6748 125.481C93.5228 124.7 91.4676 123.996 89.5358 123.376C85.4667 122.076 81.9496 121.166 79.2427 120.772C76.4242 120.361 74.4778 120.508 73.691 121.357C73.6616 120.758 73.6312 120.184 73.5999 119.636C73.5882 119.454 73.5764 119.275 73.5647 119.099C73.5828 119.051 73.6064 119.005 73.6292 118.958C73.6324 118.951 73.6347 118.944 73.6381 118.938C73.6437 118.922 73.6506 118.908 73.6587 118.894C73.6673 118.875 73.6771 118.858 73.688 118.841C73.6976 118.82 73.7094 118.8 73.7233 118.782C73.7497 118.741 73.779 118.697 73.8113 118.656C73.8351 118.625 73.8606 118.596 73.8877 118.568C73.8967 118.554 73.9075 118.541 73.92 118.53C73.9317 118.518 73.9434 118.503 73.9581 118.488C73.9644 118.479 73.9724 118.471 73.9816 118.465C74.0048 118.438 74.0304 118.414 74.0579 118.392C74.1627 118.295 74.2746 118.207 74.3926 118.127C74.4337 118.101 74.4778 118.074 74.5189 118.045C74.8147 117.868 75.1263 117.719 75.4495 117.599C75.5611 117.558 75.6727 117.52 75.793 117.479C75.8371 117.467 75.8782 117.452 75.9222 117.437C75.9868 117.417 76.0514 117.396 76.1189 117.382C76.4536 117.282 76.8147 117.197 77.2052 117.117C77.3226 117.094 77.4459 117.07 77.5692 117.05C77.6691 117.032 77.7718 117.015 77.8746 116.997C78.7465 116.859 79.7359 116.756 80.8281 116.689C80.9308 116.683 81.0336 116.677 81.1363 116.671C81.2567 116.665 81.3771 116.659 81.5004 116.654C81.6031 116.648 81.7088 116.645 81.8145 116.642C81.9173 116.636 82.023 116.633 82.1316 116.63C82.4281 116.621 82.7334 116.613 83.0446 116.607C83.9313 116.592 84.8649 116.598 85.8455 116.618C86.3005 116.627 86.7644 116.642 87.24 116.662C87.2694 116.662 87.3016 116.665 87.331 116.665C87.745 116.677 88.1648 116.698 88.5905 116.718C88.89 116.733 89.1923 116.748 89.4947 116.765C89.7795 116.783 90.0672 116.8 90.3579 116.821C90.5839 116.833 90.81 116.85 91.039 116.865C91.2328 116.88 91.4265 116.894 91.6203 116.906C91.8522 116.924 92.0842 116.941 92.319 116.959C92.642 116.985 92.9649 117.012 93.2937 117.038C93.6196 117.068 93.9514 117.097 94.2831 117.126C94.6149 117.156 94.9496 117.188 95.2843 117.22C95.3195 117.223 95.3518 117.226 95.3841 117.229C95.6894 117.261 95.9947 117.291 96.303 117.323C98.0117 117.496 99.7703 117.699 101.579 117.931C102.659 118.069 103.753 118.216 104.861 118.374C106.543 118.612 108.252 118.87 109.972 119.146C111.696 119.425 113.429 119.719 115.172 120.03C115.612 120.109 116.053 120.188 116.496 120.27C117.036 120.37 117.576 120.472 118.117 120.576C118.457 120.64 118.798 120.705 119.138 120.772C119.543 120.852 119.951 120.931 120.357 121.01C123.025 121.539 125.679 122.102 128.269 122.692C128.694 122.789 129.12 122.889 129.543 122.986C130.388 123.183 131.226 123.382 132.056 123.585C132.285 123.641 132.511 123.696 132.737 123.752C133.304 123.893 133.865 124.034 134.419 124.175V124.178C134.452 124.184 134.484 124.193 134.516 124.201C134.921 124.304 135.324 124.407 135.723 124.513C136.665 124.759 137.592 125.008 138.503 125.258C139.108 125.429 139.707 125.596 140.297 125.766C141.181 126.025 142.047 126.283 142.889 126.541C143.098 126.606 143.306 126.67 143.512 126.732C144.128 126.926 144.733 127.119 145.326 127.31C145.796 127.463 146.254 127.619 146.706 127.774C147.158 127.93 147.601 128.085 148.036 128.241C148.318 128.341 148.594 128.444 148.867 128.543C149.266 128.69 149.654 128.837 150.035 128.987C150.153 129.031 150.267 129.078 150.382 129.122C150.596 129.204 150.804 129.289 151.01 129.374C151.148 129.427 151.283 129.483 151.418 129.542C151.55 129.594 151.685 129.65 151.814 129.706C151.947 129.759 152.076 129.815 152.205 129.873C152.314 129.917 152.419 129.964 152.522 130.011C152.73 130.102 152.939 130.193 153.141 130.287C153.241 130.334 153.341 130.378 153.441 130.425L153.67 130.531C153.702 130.548 153.734 130.563 153.767 130.578C154.016 130.695 154.257 130.813 154.492 130.93C154.712 131.042 154.926 131.153 155.132 131.262C155.376 131.391 155.608 131.517 155.831 131.646C155.875 131.67 155.919 131.696 155.963 131.72C156.113 131.805 156.256 131.893 156.4 131.978C156.682 132.151 156.949 132.322 157.199 132.492C157.445 132.662 157.674 132.83 157.889 132.997C157.889 133 157.889 133 157.892 133C157.994 133.082 158.094 133.164 158.188 133.243C158.341 133.376 158.482 133.502 158.611 133.631C158.654 133.671 158.695 133.713 158.734 133.757C158.751 133.771 158.767 133.787 158.781 133.804C158.843 133.872 158.905 133.939 158.963 134.007C159.034 134.089 159.098 134.171 159.16 134.253C159.189 134.294 159.222 134.336 159.248 134.377C159.283 134.427 159.319 134.479 159.348 134.529C159.374 134.57 159.398 134.614 159.421 134.656C159.484 134.761 159.537 134.872 159.58 134.987C159.612 135.066 159.638 135.146 159.659 135.228C159.681 135.306 159.698 135.386 159.709 135.466Z" fill="black"/>
</g>
<defs>
<clipPath id="clip0_188_1603">
<rect width="231" height="168" fill="white"/>
</clipPath>
</defs>
</svg>
